Flo Rida - Who Dat Girl (Feat. Akon) (2010)

   General
      Complete name : Flo Rida - Who Dat Girl (Feat. Akon) (2010) - KonLive.mp4
      Format : Flash Video
      File size : 28.7 MiB
      Duration : 3mn 39s
      Overall bit rate : 1 097 Kbps
   Video
      Format : AVC
      Format/Info : Advanced Video Codec
      Format profile : Main@L3.0
      Format settings, CABAC : Yes
      Format settings, ReFrames : 3 frames
      Muxing mode : Container profile=Unknown@3.0
      Duration : 3mn 39s
      Bit rate : 993 Kbps
      Width : 640 pixels
      Height : 480 pixels
      Display aspect ratio : 4:3
      Frame rate mode : Variable
      Frame rate : 23.976 fps
      Resolution : 24 bits
      Colorimetry : 4:2:0
      Scan type : Progressive
      Bits/(Pixel*Frame) : 0.135
      Stream size : 26.0 MiB (91%)
   Audio
      Format : AAC
      Format/Info : Advanced Audio Codec
      Format version : Version 4
      Format profile : LC
      Format settings, SBR : No
      Duration : 3mn 39s
      Bit rate : 95.9 Kbps
      Channel(s) : 2 channels
      Channel positions : L R
      Sampling rate : 44.1 KHz
      Resolution : 16 bits
      Stream size : 2.51 MiB (9%)